<?xml version="1.0" encoding="UTF-8"?>
<svg id="Layer_1" xmlns="http://www.w3.org/2000/svg" version="1.1" viewBox="0 0 269 74.3">
  <!-- Generator: Adobe Illustrator 29.8.1, SVG Export Plug-In . SVG Version: 2.1.1 Build 2)  -->
  <defs>
    <style>
      .st0 {
        fill: #62bb46;
      }

      .st1 {
        fill: #fff;
      }
    </style>
  </defs>
  <path class="st1" d="M6.7,63.7c-1.7-1.3-2.6-3-2.7-5.4h6.7c0,.8.3,1.4.7,1.7.4.4.9.5,1.6.5s1.1-.1,1.4-.4c.4-.3.6-.7.6-1.2s-.3-1.2-.9-1.5c-.6-.4-1.6-.8-3-1.2-1.5-.5-2.7-1-3.6-1.4-.9-.5-1.7-1.1-2.4-2s-1-2-1-3.5.4-2.7,1.1-3.7c.7-1,1.7-1.8,3-2.4,1.3-.5,2.7-.8,4.4-.8,2.6,0,4.7.6,6.3,1.8,1.6,1.2,2.4,3,2.5,5.2h-6.8c0-.7-.2-1.2-.6-1.5-.4-.3-.9-.5-1.5-.5s-.9.1-1.2.4c-.3.3-.4.7-.4,1.2s.2.8.5,1.1c.3.3.7.6,1.2.8.5.2,1.2.5,2.2.9,1.4.5,2.6,1,3.5,1.5s1.7,1.2,2.4,2c.7.9,1,2,1,3.3s-.3,2.6-1,3.6c-.7,1.1-1.6,1.9-2.9,2.5-1.3.6-2.8.9-4.5.9-2.6,0-4.8-.6-6.5-1.9Z"/>
  <path class="st1" d="M35.1,60v5.4h-2.7c-4.6,0-6.9-2.3-6.9-6.8v-5.9h-2.2v-5.2h2.2v-4.4h6.3v4.4h3.3v5.2h-3.3v6c0,.5.1.8.3,1.1s.6.3,1.1.3h1.8Z"/>
  <path class="st1" d="M38.5,44.8c-.7-.6-1-1.4-1-2.3s.3-1.7,1-2.3c.7-.6,1.6-.9,2.7-.9s2,.3,2.6.9,1,1.4,1,2.3-.3,1.7-1,2.3c-.7.6-1.6.9-2.6.9s-2-.3-2.7-.9ZM44.3,47.4v18h-6.3v-18h6.3Z"/>
  <path class="st1" d="M48,51.5c.8-1.4,1.8-2.5,3.2-3.2,1.4-.7,3-1.1,4.7-1.1s4.2.6,5.8,1.9c1.6,1.3,2.6,3,3,5.2h-6.7c-.4-1.2-1.1-1.8-2.2-1.8s-1.4.3-1.9,1c-.5.7-.7,1.6-.7,2.9s.2,2.2.7,2.9c.5.7,1.1,1,1.9,1,1.1,0,1.9-.6,2.2-1.8h6.7c-.4,2.2-1.5,4-3,5.2-1.6,1.3-3.5,1.9-5.8,1.9s-3.4-.4-4.7-1.1c-1.4-.7-2.5-1.8-3.2-3.2-.8-1.4-1.2-3-1.2-4.9s.4-3.5,1.2-4.9Z"/>
  <path class="st1" d="M80.8,65.4l-7.1-9.9v9.9h-6.3v-22.6h6.3v9.8l7-9.8h7.2l-8.3,11,8.7,11.6h-7.6Z"/>
  <path class="st1" d="M102.1,65.4l-4.5-8.3h-.7v8.3h-6.3v-22.6h9.9c1.8,0,3.4.3,4.6.9,1.3.6,2.2,1.5,2.9,2.6.6,1.1,1,2.3,1,3.7s-.4,2.9-1.3,4.1-2.1,2-3.7,2.5l5.1,8.8h-7ZM97,52.8h3.1c.9,0,1.5-.2,1.9-.6.4-.4.6-1,.6-1.8s-.2-1.3-.7-1.7c-.4-.4-1.1-.6-1.9-.6h-3.1v4.7Z"/>
  <path class="st1" d="M173.9,65.3h-6.3l-8.4-12.6v12.6h-6.3v-22.6h6.3l8.4,12.8v-12.8h6.3v22.6Z"/>
  <path class="st0" d="M57.6,28.1c-1.9-.4-1.6-3.3.6-3h.3c.2-.2.1-2.2-2.1-2.2s-4.1,2.8-3,5.7c1.2,3,4.9,3.4,7.5,2.4,4.8-1.8,5.1-9,.3-12.5-6.3-4.5-15.8,1.3-14,10,1.2,5.8,5.8,9.1,11.7,9.1h38.6c0-4.1.8-7.9,2.1-11.3-.2-.7-.2-1.4-.2-2.1,0-4.9,3.9-8.9,8.7-9,4.2-3,9.5-4.6,15.7-4.7,1.1,0,2,.9,2,2v9.3h1.6c12.5.2,23.4,11.2,23.2,24.1-.2,11.6-9.4,20.5-21,20.3-9.9-.2-18.2-8.6-18-18.6.1-9,7.3-15.8,16.3-15.7,7,.1,12.8,6,12.6,13.2,0,6.2-4.4,11-10.8,10.9-3.7,0-7.6-3-7.8-6.9-.2-3.9,2.2-7.2,6.3-7,2.5,0,2.4,3.9-.1,3.8-1.8,0-2.4,1.3-2.3,3,.1,1.8,2.3,3.3,4.1,3.3,4.5,0,7.1-3.5,6.8-7.9-.3-4.6-4.2-8.4-8.8-8.5-7.3,0-12.8,5.6-12.4,12.9.4,7.4,6.8,13.5,14.2,13.6,10.1.2,17.7-7.8,17.1-17.9-.6-10.3-9.7-18.8-19.6-18.8h-3.3c-1.1,0-1.9-.9-1.9-1.9v-8.6c0-.4-.3-.7-.7-.7-3,.3-5.6,1-7.9,2.2,7.5,4.8,4.1,16.6-4.9,16.6s-4.5-.9-6.1-2.4c-.5,2.1-.8,4.4-.9,6.8h9.4c2,0,2,3.1,0,3.1h-51.8c-7.3,0-13.2-4.3-14.7-11.6-2.3-11.5,10.3-19.2,18.8-13.1,7.2,5.2,6.1,16.5-2.7,18.3-4.5.9-9.2-1-10.2-6-.8-4.1,2.1-8.5,6.3-8.5,6.7,0,6.7,9.3,1.2,8.3h0ZM108.3,18.4c-3.2,0-5.7,2.6-5.7,5.7s2.6,5.7,5.7,5.7,5.7-2.6,5.7-5.7-2.6-5.7-5.7-5.7h0ZM110.2,22.1c3.1,0,3.1,4.7,0,4.7s-3.1-4.7,0-4.7h0Z"/>
  <g>
    <path class="st1" d="M209.1,49.5v15.6h-3.8v-9.4l-3.5,9.4h-3.1l-3.5-9.4v9.4h-3.8v-15.6h4.5l4.4,10.8,4.3-10.8h4.5Z"/>
    <path class="st1" d="M215.7,52.6v3.2h5.1v2.9h-5.1v3.4h5.8v3h-9.6v-15.6h9.6v3h-5.8Z"/>
    <path class="st1" d="M237.9,65.2h-3.8l-6.4-9.6v9.6h-3.8v-15.6h3.8l6.4,9.7v-9.7h3.8v15.6Z"/>
    <path class="st1" d="M244.4,49.5v9.3c0,.9.2,1.7.7,2.2.5.5,1.1.8,2,.8s1.6-.3,2-.8c.5-.5.7-1.2.7-2.2v-9.3h3.8v9.3c0,1.4-.3,2.6-.9,3.5-.6,1-1.4,1.7-2.4,2.2s-2.1.7-3.3.7-2.3-.2-3.3-.7c-1-.5-1.7-1.2-2.3-2.2-.6-1-.8-2.2-.8-3.5v-9.3h3.8Z"/>
  </g>
  <path class="st1" d="M181.1,64.5c-.5-.4-.7-1-.7-1.6s.2-1.2.7-1.6c.5-.4,1.1-.7,1.8-.7s1.3.2,1.8.7c.5.4.7,1,.7,1.6s-.2,1.2-.7,1.6c-.5.4-1.1.7-1.8.7s-1.3-.2-1.8-.7Z"/>
</svg>