<?xml version="1.0" encoding="UTF-8"?>
<svg id="Layer_1" data-name="Layer 1" xmlns="http://www.w3.org/2000/svg" version="1.1" viewBox="0 0 39.6 56">
  <defs>
    <style>
      .cls-1 {
        fill: #ef305e;
        stroke-width: 0px;
      }
    </style>
  </defs>
  <path class="cls-1" d="M2.3,29.9c-.6,0-1.1-.2-1.6-.6s-.7-.9-.7-1.4V10.9c0-2.9,1.2-5.4,3.5-7.4C5.9,1.5,8.7.4,11.9.4s1.2.2,1.6.6c.4.4.7.9.7,1.4s-.2,1-.7,1.4c-.4.4-1,.6-1.6.6-2,0-3.8.6-5.2,1.9-1.5,1.3-2.2,2.8-2.2,4.6v16.9c0,.5-.2,1-.7,1.4-.4.4-1,.6-1.6.6h0Z"/>
  <path class="cls-1" d="M31.5,55.6c-1,0-2.2-.2-3.4-.6-1.3-.4-2.3-1.3-3.3-2.5-.9-1.2-1.4-3-1.4-5.3v-28.5c0-.9-.3-1.7-1-2.4-.7-.7-1.5-1.1-2.6-1.1s-1.8.4-2.5,1.1-1.1,1.5-1.1,2.3v20.2c0,3.3-1,5.6-3.1,6.9-1.4.9-3.1,1.4-4.8,1.4s-3.5-.4-5-1.3c-2.2-1.3-3.2-3.6-3.2-6.9v-4.5c0-.6.2-1,.7-1.4s1-.6,1.6-.6,1.2.2,1.7.6c.5.4.7.9.7,1.4v4.5c0,1.4.2,2.3.7,2.9.5.6,1,1,1.6,1.1s1,.2,1.3.2c2.3,0,3.4-1.4,3.4-4.3v-20.2c0-1.8.4-3.2,1.3-4.3.8-1.1,1.9-1.9,3.1-2.4,1.3-.5,2.5-.7,3.7-.7s2.4.3,3.6.8c1.3.5,2.3,1.3,3.2,2.4.9,1.1,1.3,2.5,1.3,4.2v28.4c0,1.2.2,2.2.6,2.8s.9,1.1,1.4,1.3c.6.2,1.1.3,1.5.3,2.4,0,3.5-1.5,3.5-4.6v-18.8c0-.6.2-1,.7-1.4s1-.6,1.6-.6,1.2.2,1.6.6c.4.4.7.9.7,1.4v18.9c0,2.3-.5,4.1-1.4,5.3s-2,2.1-3.2,2.5c-1.2.5-2.4.9-3.5.9h0Z"/>
</svg>