<?xml version="1.0" encoding="UTF-8"?>
<svg id="Layer_1" data-name="Layer 1" xmlns="http://www.w3.org/2000/svg" version="1.1" viewBox="0 0 39.6 39.3">
  <defs>
    <style>
      .cls-1 {
        fill: #fff;
        stroke-width: 0px;
      }
    </style>
  </defs>
  <path class="cls-1" d="M1.1,19.1c0-2.9.5-5.6,1.5-8-.1-.5-.2-1-.2-1.5,0-3.4,2.7-6.2,6.2-6.3C11.5,1.3,15.3.1,19.6,0c.8,0,1.4.6,1.4,1.4v6.5h1.1c8.8.1,16.5,7.9,16.4,17-.1,8.2-6.6,14.4-14.8,14.3-7-.1-12.8-6.1-12.7-13.1,0-6.3,5.1-11.1,11.5-11,4.9,0,9,4.2,8.9,9.3,0,4.4-3.1,7.8-7.6,7.7-2.6,0-5.4-2.1-5.5-4.9-.2-2.7,1.5-5.1,4.4-4.9,1.8,0,1.7,2.8,0,2.7-1.3,0-1.7.9-1.6,2.1,0,1.3,1.6,2.3,2.9,2.3,3.2,0,5-2.5,4.8-5.6-.2-3.2-3-5.9-6.2-6-5.1,0-9,4-8.7,9.1.3,5.2,4.8,9.5,10,9.6,7.1.1,12.5-5.5,12-12.6-.4-7.2-6.8-13.2-13.8-13.2h-2.3c-.8,0-1.4-.6-1.4-1.3V3.3c0-.3-.2-.5-.5-.5-2.1.2-3.9.7-5.6,1.5,5.3,3.4,2.9,11.7-3.4,11.7s-3.2-.6-4.3-1.7c-.4,1.5-.6,3.1-.6,4.8h9.7c1.4,0,1.4,2.2,0,2.2H2.1c-.5,0-1-.4-1-1v-1.2ZM8.8,5.7c-2.3,0-4.2,2-4,4.4s1.8,3.6,3.7,3.7,4.3-1.7,4.3-4-1.8-4-4-4h0ZM10.1,8.2c2.2,0,2.2,3.3,0,3.3s-2.2-3.3,0-3.3h0Z"/>
</svg>