<?xml version="1.0" encoding="UTF-8"?>
<svg id="Layer_1" xmlns="http://www.w3.org/2000/svg" version="1.1" viewBox="0 0 4560.8 2192.2">
  <!-- Generator: Adobe Illustrator 29.8.1, SVG Export Plug-In . SVG Version: 2.1.1 Build 2)  -->
  <defs>
    <style>
      .st0 {
        fill: #62bb46;
      }

      .st1 {
        fill: #fff;
      }
    </style>
  </defs>
  <path class="st1" d="M409.9,1443c-38.4-28.5-59.1-69.2-62-122.2h152.4c1.4,18,6.8,31.1,16,39.4,9.2,8.3,21.1,12.4,35.7,12.4s24-3.3,32.5-9.9c8.5-6.6,12.8-15.7,12.8-27.3s-7-26.7-21.1-35c-14.1-8.3-37-17.5-68.6-27.7-33.5-11.2-60.7-22-81.3-32.5-20.7-10.5-38.7-25.8-54-46-15.3-20.2-23-46.6-23-79.1s8.3-61.4,24.8-85c16.5-23.6,39.4-41.4,68.6-53.6,29.2-12.1,62.2-18.2,99.2-18.2,59.8,0,107.6,14,143.3,42,35.7,27.9,54.8,67.2,57.2,117.8h-155.4c-.5-15.5-5.2-27.2-14.2-35-9-7.8-20.5-11.7-34.6-11.7s-19.5,3.2-26.3,9.5c-6.8,6.3-10.2,15.3-10.2,27s3.8,18.1,11.3,25.2c7.5,7.1,16.9,13.1,28.1,18.2,11.2,5.1,27.7,11.6,49.6,19.3,32.6,11.2,59.4,22.2,80.6,33.2,21.1,10.9,39.4,26.3,54.7,46,15.3,19.7,23,44.6,23,74.8s-7.7,58.1-23,82.4c-15.3,24.3-37.5,43.5-66.4,57.6-28.9,14.1-63.1,21.2-102.5,21.2-59.8,0-108.9-14.2-147.3-42.7Z"/>
  <path class="st1" d="M1056.9,1358.8v121.8h-61.9c-104.6,0-156.8-51.8-156.8-155.3v-135h-50.4v-118.9h50.4v-99.2h143.6v99.2h74.5v118.9h-74.5v137.1c0,11.2,2.6,19.2,7.7,24.1,5.1,4.9,13.8,7.3,25.9,7.3h41.6Z"/>
  <path class="st1" d="M1133.8,1012.7c-15.3-13.9-23-31.3-23-52.2s7.7-39.1,23-53.2c15.3-14.1,35.7-21.1,60.9-21.1s44.9,7,60.2,21.1c15.3,14.1,23,31.9,23,53.2s-7.6,38.3-23,52.2c-15.3,13.8-35.4,20.8-60.2,20.8s-45.6-6.9-60.9-20.8ZM1265.5,1071.4v409.2h-142.9v-409.2h142.9Z"/>
  <path class="st1" d="M1350.1,1164.8c17.5-31.6,42-55.9,73.3-72.9,31.4-17,67.3-25.6,107.6-25.6s95.8,14.2,131.3,42.7c35.5,28.5,58.4,68.2,68.5,119.3h-151.7c-8.8-26.7-25.8-40.1-51.1-40.1s-32.2,7.4-42.7,22.2c-10.5,14.9-15.7,36.6-15.7,65.3s5.2,50.6,15.7,65.6c10.4,15.1,24.7,22.6,42.7,22.6,25.8,0,42.8-13.4,51.1-40.1h151.7c-10.2,50.6-33.1,90.2-68.5,118.9-35.5,28.7-79.3,43-131.3,43s-76.2-8.5-107.6-25.5c-31.3-17-55.8-41.4-73.3-73-17.5-31.6-26.2-68.8-26.2-111.6s8.7-79.3,26.2-110.9Z"/>
  <path class="st1" d="M2094,1480.6l-161.2-225.4v225.4h-142.9v-514.2h142.9v221.7l159.8-221.7h164.8l-188.9,249.5,198.4,264.8h-172.8Z"/>
  <path class="st1" d="M2579.8,1480.6l-102.1-189.6h-15.3v189.6h-142.9v-514.2h225.4c41.4,0,76.4,7.2,105,21.5,28.7,14.4,50.3,34.1,64.9,59.1,14.6,25,21.9,53.1,21.9,84.2s-9.6,65.8-28.8,92.3c-19.2,26.5-47.3,45.3-84.2,56.5l116,200.6h-159.8ZM2462.4,1193.2h70.7c19.5,0,34-4.6,43.8-13.8,9.7-9.2,14.6-22.6,14.6-40.1s-5-29.6-15-39c-10-9.5-24.4-14.2-43.4-14.2h-70.7v107.2Z"/>
  <path class="st1" d="M4212.9,1479.2h-142.9l-190.4-287.4v287.4h-142.9v-514.2h142.9l190.4,291v-291h142.9v514.2Z"/>
  <path class="st0" d="M1567,633c-43.1-8.2-35.8-75.3,12.7-69l7.7.5c5-5.9,3.2-49.5-46.7-49.5s-93.5,64-69,128.8c26.3,68.5,110.7,77.1,170.1,54.4,109.8-41.7,117-204.6,7.3-283.6-142.5-102.1-358.9,28.6-318.9,226.8,27.2,132.9,132.5,206.4,266.3,206.4l878,.5c1.4-94.4,17.7-181,47.6-257.7-3.6-15-5.4-30.9-5.4-47.2,0-111.2,88.5-201.4,198.7-204.6,94.8-67.1,215-105.3,356.1-107.1,25.4-.5,44.5,20.4,44.5,44.9v211.4h35.4c285.4,4.5,532.6,255,528.1,547.6-4.5,263.6-214.1,465.5-478.6,461.4-224.6-3.6-413.8-196.4-410.1-421.9,3.2-203.7,165.6-359.8,370.2-356.6,158.3,2.7,290.4,136.6,287.6,299.4-2.3,141.1-99.8,250.4-245,248.2-84.4-1.4-172.9-68.5-177.8-157-5.4-88.5,49-163.3,143.4-159.2,57.6,2.3,54,89.4-3.2,87.1-41.3-1.4-55.3,30.4-53.1,67.1,2.7,40.4,51.7,73.9,92.6,74.9,103,1.4,161.1-80.3,155.2-180.1-5.9-104.3-96.6-191.5-201-193.3-165.6-2.3-290.8,127.9-280.8,294,10,167.9,155.2,307.1,323.5,309.9,228.7,3.6,402.4-177.4,388.8-407-13.6-233.2-219.6-426.9-444.6-426.9h-73.9c-24.5,0-44-19.5-44-43.6v-194.6c0-9.1-7.7-15.9-16.3-15-67.1,6.8-127,23.6-179.7,49,170.1,109.8,92.6,376.6-111.2,376.6s-103.4-20.9-139.7-55.3c-12.2,48.5-18.6,100.7-19.5,155.6l212.8.5c46.3,0,46.3,69.9,0,69.9l-1178.3-.5c-167-.5-301.2-97.1-334.8-263.1-52.6-260.4,234.6-436.4,428.3-297.2,164.2,118.4,138.4,376.1-60.8,416.5-103,20.9-208.7-23.6-231.4-136.6-19.1-93.5,48.1-192.8,142.9-192.8,152.4-.5,152.9,211.4,26.3,187.8h0ZM2721.3,412.9c-72.1,0-130.2,58.5-130.2,130.7s58.1,130.7,130.2,130.7,130.7-58.5,130.7-130.7-58.5-130.7-130.7-130.7h0ZM2762.6,496.4c70.3,0,70.3,107.5,0,107.5s-70.8-107.5,0-107.5h0Z"/>
  <g>
    <path class="st1" d="M719.2,1687.9c8.4-16.7,19.7-29.6,34.2-38.6,14.4-9,30.5-13.5,48.2-13.5s27.1,3,38.8,8.9c11.7,5.9,20.9,13.9,27.6,23.9v-99.9h66v285.5h-66v-30.9c-6.2,10.3-15,18.5-26.4,24.7-11.5,6.2-24.8,9.3-39.9,9.3s-33.8-4.6-48.2-13.7c-14.4-9.1-25.8-22.1-34.2-39-8.4-16.8-12.5-36.3-12.5-58.5s4.2-41.5,12.5-58.3ZM854.2,1707.5c-9.1-9.5-20.3-14.3-33.4-14.3s-24.2,4.7-33.4,14.1c-9.1,9.4-13.7,22.3-13.7,38.8s4.6,29.5,13.7,39.2c9.1,9.6,20.3,14.5,33.4,14.5s24.2-4.8,33.4-14.3c9.1-9.5,13.7-22.5,13.7-39s-4.6-29.5-13.7-39Z"/>
    <path class="st1" d="M1044.4,1606.2c-7.3-6.8-11-15.2-11-25.3s3.7-18.8,11-25.7c7.3-6.8,16.8-10.2,28.4-10.2s20.6,3.4,28,10.2c7.3,6.8,11,15.4,11,25.7s-3.7,18.5-11,25.3c-7.3,6.8-16.7,10.2-28,10.2s-21-3.4-28.4-10.2ZM1105.6,1638.9v215.3h-66v-215.3h66Z"/>
    <path class="st1" d="M1333.1,1645c11.4,6.2,20.3,14.3,26.4,24.3v-30.5h66v214.9c0,19.8-3.9,37.7-11.8,53.8-7.8,16.1-19.8,28.9-35.9,38.4-16.1,9.5-36.1,14.3-60,14.3s-57.8-7.5-77.6-22.6c-19.8-15-31.1-35.4-34-61.2h65.2c2.1,8.2,6.9,14.7,14.7,19.5,7.7,4.8,17.2,7.1,28.6,7.1s24.5-3.9,32.6-11.8c8.1-7.9,12.2-20.4,12.2-37.6v-30.5c-6.4,10-15.3,18.2-26.6,24.5-11.3,6.3-24.6,9.5-39.7,9.5s-33.8-4.6-48.2-13.7c-14.4-9.1-25.8-22.1-34.2-39-8.4-16.8-12.5-36.3-12.5-58.5s4.2-41.5,12.5-58.3c8.4-16.7,19.7-29.6,34.2-38.6,14.4-9,30.5-13.5,48.2-13.5s28.5,3.1,39.9,9.3ZM1345.8,1707.5c-9.1-9.5-20.3-14.3-33.4-14.3s-24.2,4.7-33.4,14.1c-9.1,9.4-13.7,22.3-13.7,38.8s4.6,29.5,13.7,39.2c9.1,9.6,20.3,14.5,33.4,14.5s24.2-4.8,33.4-14.3c9.1-9.5,13.7-22.5,13.7-39s-4.6-29.5-13.7-39Z"/>
    <path class="st1" d="M1536,1606.2c-7.3-6.8-11-15.2-11-25.3s3.7-18.8,11-25.7c7.3-6.8,16.8-10.2,28.4-10.2s20.6,3.4,28,10.2c7.3,6.8,11,15.4,11,25.7s-3.7,18.5-11,25.3c-7.3,6.8-16.7,10.2-28,10.2s-21-3.4-28.4-10.2ZM1597.2,1638.9v215.3h-66v-215.3h66Z"/>
    <path class="st1" d="M1822.9,1798.2v56h-33.6c-23.9,0-42.6-5.8-56-17.6-13.4-11.7-20.1-30.8-20.1-57.3v-85.7h-26.2v-54.8h26.2v-52.5h66v52.5h43.2v54.8h-43.2v86.4c0,6.4,1.5,11.1,4.6,13.9,3.1,2.8,8.2,4.2,15.4,4.2h23.5Z"/>
    <path class="st1" d="M1916.9,1687.9c8.4-16.7,19.7-29.6,34.2-38.6,14.4-9,30.5-13.5,48.2-13.5s28.5,3.1,39.9,9.3c11.4,6.2,20.3,14.3,26.4,24.3v-30.5h66v215.3h-66v-30.5c-6.4,10-15.4,18.1-26.8,24.3-11.4,6.2-24.8,9.3-39.9,9.3s-33.4-4.6-47.8-13.7c-14.4-9.1-25.8-22.1-34.2-39-8.4-16.8-12.5-36.3-12.5-58.5s4.2-41.5,12.5-58.3ZM2052,1707.5c-9.1-9.5-20.3-14.3-33.4-14.3s-24.2,4.7-33.4,14.1c-9.1,9.4-13.7,22.3-13.7,38.8s4.6,29.5,13.7,39.2c9.1,9.6,20.3,14.5,33.4,14.5s24.2-4.8,33.4-14.3c9.1-9.5,13.7-22.5,13.7-39s-4.6-29.5-13.7-39Z"/>
    <path class="st1" d="M2303.4,1568.6v285.5h-66v-285.5h66Z"/>
    <path class="st1" d="M2887.4,1660.8c15.8,16.2,23.7,38.7,23.7,67.5v125.8h-65.6v-116.9c0-13.9-3.7-24.6-11-32.2-7.3-7.6-17.4-11.4-30.3-11.4s-23,3.8-30.3,11.4c-7.3,7.6-11,18.3-11,32.2v116.9h-65.6v-116.9c0-13.9-3.7-24.6-11-32.2-7.3-7.6-17.4-11.4-30.3-11.4s-23,3.8-30.3,11.4c-7.3,7.6-11,18.3-11,32.2v116.9h-66v-215.3h66v27c6.7-9,15.4-16.1,26.2-21.4,10.8-5.3,23-7.9,36.7-7.9s30.7,3.5,43.4,10.4c12.7,6.9,22.7,16.9,29.9,29.7,7.5-11.8,17.6-21.5,30.5-28.9,12.9-7.5,26.9-11.2,42.1-11.2,26.8,0,48,8.1,63.9,24.3Z"/>
    <path class="st1" d="M3217.1,1762.3h-149.3c1,13.4,5.3,23.6,12.9,30.7,7.6,7.1,16.9,10.6,28,10.6,16.5,0,27.9-6.9,34.3-20.8h70.2c-3.6,14.2-10.1,26.9-19.5,38.2-9.4,11.3-21.2,20.2-35.3,26.6-14.2,6.4-30,9.6-47.5,9.6s-39.9-4.5-56.3-13.5c-16.5-9-29.3-21.9-38.6-38.6-9.3-16.7-13.9-36.3-13.9-58.7s4.6-41.9,13.7-58.7c9.1-16.7,21.9-29.6,38.4-38.6,16.5-9,35.4-13.5,56.7-13.5s39.4,4.4,55.6,13.1c16.2,8.7,28.9,21.2,38,37.4,9.1,16.2,13.7,35.1,13.7,56.7s-.4,12.6-1.2,19.3ZM3150.7,1725.7c0-11.3-3.9-20.3-11.6-27-7.7-6.7-17.4-10-28.9-10s-20.4,3.2-28,9.6c-7.6,6.4-12.3,15.6-14.1,27.4h82.6Z"/>
    <path class="st1" d="M3502.5,1661c15.1,16.3,22.6,38.8,22.6,67.3v125.8h-65.6v-116.9c0-14.4-3.7-25.6-11.2-33.6-7.5-8-17.5-12-30.1-12s-22.6,4-30.1,12c-7.5,8-11.2,19.2-11.2,33.6v116.9h-66v-215.3h66v28.6c6.7-9.5,15.7-17,27-22.6,11.3-5.5,24.1-8.3,38.2-8.3,25.2,0,45.3,8.2,60.4,24.5Z"/>
    <path class="st1" d="M3841.4,1638.9v215.3h-66v-29.3c-6.7,9.5-15.8,17.2-27.2,23-11.4,5.8-24.1,8.7-38,8.7s-31-3.7-43.6-11c-12.6-7.3-22.4-17.9-29.3-31.8-6.9-13.9-10.4-30.2-10.4-49v-125.8h65.6v116.9c0,14.4,3.7,25.6,11.2,33.6,7.5,8,17.5,12,30.1,12s23-4,30.5-12c7.5-8,11.2-19.2,11.2-33.6v-116.9h66Z"/>
  </g>
</svg>