<?xml version="1.0" encoding="UTF-8"?>
<svg xmlns="http://www.w3.org/2000/svg" version="1.1" viewBox="0 0 4560.8 2192.2">
  <defs>
    <style>
      .cls-1 {
        fill: #231f20;
      }

      .cls-2 {
        fill: #010101;
      }
    </style>
  </defs>
  <!-- Generator: Adobe Illustrator 28.7.3, SVG Export Plug-In . SVG Version: 1.2.0 Build 164)  -->
  <g>
    <g id="Layer_1">
      <g>
        <path class="cls-1" d="M884.1,1541.3c56,0,91,18.5,112.1,38.2,18.5,17.8,38.2,49.5,38.2,98.2s-5.9,62-34.3,89.7c-15.2,14.5-36.9,27.7-61.3,33.6l135.2,180h-124l-118.7-173.4v173.4h-101.5v-439.8h154.3ZM831.3,1741.1h23.1c18.5,0,43.5-2,60.7-19.1,7.3-7.3,16.5-21.1,16.5-42.9s-11.9-38.2-20.4-44.8c-16.5-12.5-42.9-13.8-56-13.8h-23.7v120.7Z"/>
        <path class="cls-1" d="M1378.6,1627h-147v85.1h139.8v85.7h-139.8v97.6h147v85.7h-248.6v-439.8h248.6v85.7Z"/>
        <path class="cls-1" d="M1562.6,1541.3v354.1h136.5v85.7h-238v-439.8h101.5Z"/>
        <path class="cls-1" d="M1860,1541.3v439.8h-101.5v-439.8h101.5Z"/>
        <path class="cls-1" d="M2276.1,1967.3c-38.9,19.8-70.6,23.7-96.9,23.7-81.1,0-135.8-27.7-172.8-64-39.6-38.2-68.6-96.3-68.6-166.8s29-127.3,68.6-165.5c38.9-37.6,95.6-63.3,164.2-63.3s62.6,5.9,105.5,24.4v117.4c-22.4-23.7-56-46.8-102.9-46.8s-66.6,11.9-89.7,34.3c-24.4,23.7-41.5,59.3-41.5,101.5s18.5,77.8,38.2,96.9c9.2,9.2,40.9,36.9,95,36.9s62-7.3,100.9-45.5v116.7Z"/>
        <path class="cls-1" d="M2417.2,1541.3l93.6,291.5,93.6-291.5h69.9l93.6,291.5,93.6-291.5h105.5l-149.7,439.8h-85.7l-92.3-267.1-92.3,267.1h-85.7l-149.7-439.8h105.5Z"/>
        <path class="cls-1" d="M3121.5,1541.3v439.8h-101.5v-439.8h101.5Z"/>
        <path class="cls-1" d="M3446.6,1648.8c-33-29.7-61.3-31.7-73.9-31.7s-31,2-42.9,15.2c-6.6,6.6-11.2,16.5-11.2,27.7s3.3,18.5,9.9,24.4c10.6,9.9,25.7,13.8,55.4,25.1l33,12.5c19.1,7.3,42.9,17.1,60,33.6,25.7,24.4,32.3,56,32.3,81.8,0,45.5-15.8,85.1-38.9,108.8-38.9,40.9-95.6,44.8-124.6,44.8s-59.3-4.6-87-18.5c-22.4-11.2-48.1-31.7-64.6-48.1l52.8-72.5c11.2,11.2,29,26.4,40.9,33.6,17.1,10.5,34.9,15.8,55.4,15.8s31.7-2.6,46.2-15.2c8.6-7.3,15.8-19.1,15.8-35.6s-5.9-23.7-15.2-31.7c-11.9-9.9-38.9-19.8-51.4-24.4l-36.3-12.5c-20.4-7.3-44.2-16.5-61.3-34.9-23.1-24.4-26.4-55.4-26.4-76.5,0-38.9,11.9-71.9,38.2-98.9,31-31.7,67.9-40.2,108.8-40.2s79.1,5.3,130.6,43.5l-45.5,73.9Z"/>
        <path class="cls-1" d="M3831,1627h-147v85.1h139.8v85.7h-139.8v97.6h147v85.7h-248.6v-439.8h248.6v85.7Z"/>
      </g>
      <g>
        <path class="cls-2" d="M1867.5,801.3c-14.3,0-26.9-4.7-37.6-14.1-10.7-9.4-16.1-20.4-16.1-32.9v-399.3c0-68.1,27.7-126.4,83.3-175,55.5-48.5,121.8-72.8,198.8-72.8s28,4.7,38.3,14.1c10.3,9.4,15.4,20.8,15.4,34.1s-5.2,23.5-15.4,32.9c-10.3,9.4-23.1,14.1-38.3,14.1-47.5,0-88.4,14.9-122.9,44.6-34.5,29.8-51.7,65.8-51.7,108v399.3c0,12.5-5.2,23.5-15.4,32.9-10.3,9.4-23.1,14.1-38.3,14.1Z"/>
        <path class="cls-2" d="M2556.3,1406.8c-24.2,0-51-5.1-80.6-15.3-29.6-10.2-55.3-29.6-77.2-58.1-22-28.6-32.9-70.3-32.9-125.1v-670.6c0-20.3-7.8-39.1-23.5-56.4-15.7-17.2-36.1-25.8-61.1-25.8s-41.9,8.4-58.4,25.3c-16.6,16.8-24.9,35-24.9,54.6v475.6c0,77.5-24.6,131.9-73.9,163.2-34,21.9-72.1,32.9-114.2,32.9s-83.3-10.6-118.2-31.7c-51-31.3-76.6-85.3-76.6-162.1v-105.7c0-13.3,5.4-24.5,16.1-33.5,10.7-9,23.3-13.5,37.6-13.5s28.2,4.5,39,13.5c10.7,9,16.1,20.2,16.1,33.5v105.7c0,32.1,5.8,55.2,17.5,69.3,11.6,14.1,24.4,22.7,38.3,25.8,13.9,3.1,23.9,4.7,30.2,4.7,53.7,0,80.6-33.7,80.6-101v-476.8c0-41.5,9.8-75,29.6-100.4,19.7-25.4,44.3-44,73.9-55.8,29.6-11.7,58.6-17.6,87.3-17.6s56.4,6.3,86,18.8c29.6,12.5,54.6,31.7,75.2,57.5,20.6,25.8,30.9,59.1,30.9,99.8v669.4c0,29,4.7,51.1,14.1,66.4,9.4,15.3,20.6,25.6,33.6,31.1,13,5.5,24.8,8.2,35.6,8.2,55.5,0,83.3-36,83.3-108v-443.9c0-13.3,5.4-24.5,16.1-33.5,10.7-9,23.3-13.5,37.6-13.5s28,4.5,38.3,13.5c10.3,9,15.4,20.2,15.4,33.5v445.1c0,54.8-10.7,96.7-32.2,125.7-21.5,29-47,48.7-76.6,59.3-29.6,10.6-56.9,15.9-81.9,15.9Z"/>
      </g>
    </g>
  </g>
</svg>