<?xml version="1.0"?>
<svg xmlns="http://www.w3.org/2000/svg" xmlns:xlink="http://www.w3.org/1999/xlink" version="1.1" width="320px" height="320px" viewBox="0 0 320 320"><rect x="0" y="0" width="320" height="320" fill="#ffffff" fill-opacity="1"/><path fill="#000000" fill-opacity="1" d="M15,15L85,15L85,25L15,25ZM105,15L135,15L135,25L105,25ZM145,15L155,15L155,25L145,25ZM165,15L225,15L225,25L165,25ZM235,15L305,15L305,25L235,25ZM15,25L25,25L25,35L15,35ZM75,25L85,25L85,35L75,35ZM125,25L155,25L155,35L125,35ZM165,25L205,25L205,35L165,35ZM215,25L225,25L225,35L215,35ZM235,25L245,25L245,35L235,35ZM295,25L305,25L305,35L295,35ZM15,35L25,35L25,45L15,45ZM35,35L65,35L65,45L35,45ZM75,35L85,35L85,45L75,45ZM105,35L135,35L135,45L105,45ZM155,35L165,35L165,45L155,45ZM185,35L215,35L215,45L185,45ZM235,35L245,35L245,45L235,45ZM255,35L285,35L285,45L255,45ZM295,35L305,35L305,45L295,45ZM15,45L25,45L25,55L15,55ZM35,45L65,45L65,55L35,55ZM75,45L85,45L85,55L75,55ZM95,45L105,45L105,55L95,55ZM115,45L135,45L135,55L115,55ZM155,45L165,45L165,55L155,55ZM175,45L195,45L195,55L175,55ZM215,45L225,45L225,55L215,55ZM235,45L245,45L245,55L235,55ZM255,45L285,45L285,55L255,55ZM295,45L305,45L305,55L295,55ZM15,55L25,55L25,65L15,65ZM35,55L65,55L65,65L35,65ZM75,55L85,55L85,65L75,65ZM95,55L105,55L105,65L95,65ZM115,55L125,55L125,65L115,65ZM135,55L145,55L145,65L135,65ZM165,55L175,55L175,65L165,65ZM235,55L245,55L245,65L235,65ZM255,55L285,55L285,65L255,65ZM295,55L305,55L305,65L295,65ZM15,65L25,65L25,75L15,75ZM75,65L85,65L85,75L75,75ZM105,65L125,65L125,75L105,75ZM145,65L155,65L155,75L145,75ZM175,65L195,65L195,75L175,75ZM215,65L225,65L225,75L215,75ZM235,65L245,65L245,75L235,75ZM295,65L305,65L305,75L295,75ZM15,75L85,75L85,85L15,85ZM95,75L105,75L105,85L95,85ZM115,75L125,75L125,85L115,85ZM135,75L145,75L145,85L135,85ZM155,75L165,75L165,85L155,85ZM175,75L185,75L185,85L175,85ZM195,75L205,75L205,85L195,85ZM215,75L225,75L225,85L215,85ZM235,75L305,75L305,85L235,85ZM105,85L115,85L115,95L105,95ZM135,85L175,85L175,95L135,95ZM185,85L215,85L215,95L185,95ZM15,95L35,95L35,105L15,105ZM65,95L95,95L95,105L65,105ZM105,95L125,95L125,105L105,105ZM135,95L145,95L145,105L135,105ZM165,95L185,95L185,105L165,105ZM255,95L275,95L275,105L255,105ZM25,105L35,105L35,115L25,115ZM45,105L65,105L65,115L45,115ZM95,105L105,105L105,115L95,115ZM115,105L125,105L125,115L115,115ZM155,105L165,105L165,115L155,115ZM175,105L185,105L185,115L175,115ZM215,105L225,105L225,115L215,115ZM245,105L255,105L255,115L245,115ZM265,105L285,105L285,115L265,115ZM295,105L305,105L305,115L295,115ZM15,115L25,115L25,125L15,125ZM35,115L45,115L45,125L35,125ZM65,115L95,115L95,125L65,125ZM105,115L115,115L115,125L105,125ZM125,115L145,115L145,125L125,125ZM165,115L195,115L195,125L165,125ZM215,115L235,115L235,125L215,125ZM265,115L285,115L285,125L265,125ZM45,125L65,125L65,135L45,135ZM115,125L135,125L135,135L115,135ZM165,125L175,125L175,135L165,135ZM195,125L215,125L215,135L195,135ZM225,125L245,125L245,135L225,135ZM255,125L275,125L275,135L255,135ZM285,125L305,125L305,135L285,135ZM25,135L55,135L55,145L25,145ZM75,135L85,135L85,145L75,145ZM105,135L125,135L125,145L105,145ZM145,135L195,135L195,145L145,145ZM205,135L245,135L245,145L205,145ZM265,135L285,135L285,145L265,145ZM295,135L305,135L305,145L295,145ZM15,145L25,145L25,155L15,155ZM45,145L75,145L75,155L45,155ZM85,145L125,145L125,155L85,155ZM135,145L155,145L155,155L135,155ZM165,145L175,145L175,155L165,155ZM245,145L275,145L275,155L245,155ZM15,155L45,155L45,165L15,165ZM65,155L85,155L85,165L65,165ZM95,155L105,155L105,165L95,165ZM115,155L125,155L125,165L115,165ZM145,155L195,155L195,165L145,165ZM205,155L235,155L235,165L205,165ZM245,155L255,155L255,165L245,165ZM265,155L305,155L305,165L265,165ZM15,165L25,165L25,175L15,175ZM35,165L45,165L45,175L35,175ZM65,165L75,165L75,175L65,175ZM95,165L105,165L105,175L95,175ZM115,165L125,165L125,175L115,175ZM135,165L225,165L225,175L135,175ZM255,165L265,165L265,175L255,175ZM275,165L285,165L285,175L275,175ZM25,175L45,175L45,185L25,185ZM55,175L105,175L105,185L55,185ZM115,175L125,175L125,185L115,185ZM135,175L145,175L145,185L135,185ZM155,175L195,175L195,185L155,185ZM235,175L245,175L245,185L235,185ZM15,185L25,185L25,195L15,195ZM45,185L65,185L65,195L45,195ZM85,185L125,185L125,195L85,195ZM195,185L215,185L215,195L195,195ZM235,185L245,185L245,195L235,195ZM255,185L265,185L265,195L255,195ZM285,185L295,185L295,195L285,195ZM15,195L55,195L55,205L15,205ZM65,195L85,195L85,205L65,205ZM105,195L115,195L115,205L105,205ZM135,195L165,195L165,205L135,205ZM225,195L245,195L245,205L225,205ZM295,195L305,195L305,205L295,205ZM15,205L25,205L25,215L15,215ZM45,205L55,205L55,215L45,215ZM85,205L105,205L105,215L85,215ZM125,205L135,205L135,215L125,215ZM155,205L175,205L175,215L155,215ZM205,205L215,205L215,215L205,215ZM225,205L245,205L245,215L225,215ZM255,205L265,205L265,215L255,215ZM275,205L285,205L285,215L275,215ZM295,205L305,205L305,215L295,215ZM15,215L25,215L25,225L15,225ZM55,215L65,215L65,225L55,225ZM75,215L85,215L85,225L75,225ZM105,215L115,215L115,225L105,225ZM125,215L135,215L135,225L125,225ZM165,215L175,215L175,225L165,225ZM215,215L265,215L265,225L215,225ZM275,215L295,215L295,225L275,225ZM95,225L105,225L105,235L95,235ZM135,225L155,225L155,235L135,235ZM175,225L185,225L185,235L175,235ZM205,225L225,225L225,235L205,235ZM255,225L265,225L265,235L255,235ZM275,225L285,225L285,235L275,235ZM295,225L305,225L305,235L295,235ZM15,235L85,235L85,245L15,245ZM95,235L125,235L125,245L95,245ZM145,235L165,235L165,245L145,245ZM175,235L205,235L205,245L175,245ZM215,235L225,235L225,245L215,245ZM235,235L245,235L245,245L235,245ZM255,235L265,235L265,245L255,245ZM275,235L285,235L285,245L275,245ZM15,245L25,245L25,255L15,255ZM75,245L85,245L85,255L75,255ZM95,245L105,245L105,255L95,255ZM135,245L155,245L155,255L135,255ZM165,245L175,245L175,255L165,255ZM185,245L205,245L205,255L185,255ZM215,245L225,245L225,255L215,255ZM255,245L285,245L285,255L255,255ZM295,245L305,245L305,255L295,255ZM15,255L25,255L25,265L15,265ZM35,255L65,255L65,265L35,265ZM75,255L85,255L85,265L75,265ZM115,255L155,255L155,265L115,265ZM165,255L175,255L175,265L165,265ZM205,255L265,255L265,265L205,265ZM285,255L295,255L295,265L285,265ZM15,265L25,265L25,275L15,275ZM35,265L65,265L65,275L35,275ZM75,265L85,265L85,275L75,275ZM115,265L125,265L125,275L115,275ZM165,265L185,265L185,275L165,275ZM205,265L225,265L225,275L205,275ZM245,265L265,265L265,275L245,275ZM285,265L295,265L295,275L285,275ZM15,275L25,275L25,285L15,285ZM35,275L65,275L65,285L35,285ZM75,275L85,275L85,285L75,285ZM105,275L115,275L115,285L105,285ZM125,275L145,275L145,285L125,285ZM185,275L195,275L195,285L185,285ZM225,275L235,275L235,285L225,285ZM255,275L265,275L265,285L255,285ZM275,275L295,275L295,285L275,285ZM15,285L25,285L25,295L15,295ZM75,285L85,285L85,295L75,295ZM95,285L105,285L105,295L95,295ZM115,285L135,285L135,295L115,295ZM165,285L185,285L185,295L165,295ZM235,285L255,285L255,295L235,295ZM265,285L275,285L275,295L265,295ZM285,285L295,285L295,295L285,295ZM15,295L85,295L85,305L15,305ZM95,295L105,295L105,305L95,305ZM115,295L135,295L135,305L115,305ZM165,295L175,295L175,305L165,305ZM185,295L245,295L245,305L185,305ZM255,295L285,295L285,305L255,305Z"/></svg>
