<?xml version="1.0"?>
<svg xmlns="http://www.w3.org/2000/svg" xmlns:xlink="http://www.w3.org/1999/xlink" version="1.1" width="320px" height="320px" viewBox="0 0 320 320"><rect x="0" y="0" width="320" height="320" fill="#ffffff" fill-opacity="1"/><path fill="#000000" fill-opacity="1" d="M15,15L85,15L85,25L15,25ZM95,15L105,15L105,25L95,25ZM145,15L185,15L185,25L145,25ZM195,15L225,15L225,25L195,25ZM235,15L305,15L305,25L235,25ZM15,25L25,25L25,35L15,35ZM75,25L85,25L85,35L75,35ZM95,25L105,25L105,35L95,35ZM125,25L145,25L145,35L125,35ZM155,25L165,25L165,35L155,35ZM175,25L215,25L215,35L175,35ZM235,25L245,25L245,35L235,35ZM295,25L305,25L305,35L295,35ZM15,35L25,35L25,45L15,45ZM35,35L65,35L65,45L35,45ZM75,35L85,35L85,45L75,45ZM95,35L115,35L115,45L95,45ZM135,35L145,35L145,45L135,45ZM155,35L165,35L165,45L155,45ZM175,35L185,35L185,45L175,45ZM205,35L215,35L215,45L205,45ZM235,35L245,35L245,45L235,45ZM255,35L285,35L285,45L255,45ZM295,35L305,35L305,45L295,45ZM15,45L25,45L25,55L15,55ZM35,45L65,45L65,55L35,55ZM75,45L85,45L85,55L75,55ZM95,45L125,45L125,55L95,55ZM135,45L155,45L155,55L135,55ZM165,45L175,45L175,55L165,55ZM195,45L205,45L205,55L195,55ZM235,45L245,45L245,55L235,55ZM255,45L285,45L285,55L255,55ZM295,45L305,45L305,55L295,55ZM15,55L25,55L25,65L15,65ZM35,55L65,55L65,65L35,65ZM75,55L85,55L85,65L75,65ZM105,55L125,55L125,65L105,65ZM135,55L155,55L155,65L135,65ZM175,55L185,55L185,65L175,65ZM205,55L225,55L225,65L205,65ZM235,55L245,55L245,65L235,65ZM255,55L285,55L285,65L255,65ZM295,55L305,55L305,65L295,65ZM15,65L25,65L25,75L15,75ZM75,65L85,65L85,75L75,75ZM95,65L125,65L125,75L95,75ZM155,65L165,65L165,75L155,75ZM175,65L195,65L195,75L175,75ZM205,65L215,65L215,75L205,75ZM235,65L245,65L245,75L235,75ZM295,65L305,65L305,75L295,75ZM15,75L85,75L85,85L15,85ZM95,75L105,75L105,85L95,85ZM115,75L125,75L125,85L115,85ZM135,75L145,75L145,85L135,85ZM155,75L165,75L165,85L155,85ZM175,75L185,75L185,85L175,85ZM195,75L205,75L205,85L195,85ZM215,75L225,75L225,85L215,85ZM235,75L305,75L305,85L235,85ZM115,85L135,85L135,95L115,95ZM155,85L165,85L165,95L155,95ZM175,85L185,85L185,95L175,95ZM205,85L215,85L215,95L205,95ZM15,95L35,95L35,105L15,105ZM55,95L85,95L85,105L55,105ZM115,95L125,95L125,105L115,105ZM135,95L145,95L145,105L135,105ZM155,95L165,95L165,105L155,105ZM205,95L225,95L225,105L205,105ZM245,95L255,95L255,105L245,105ZM265,95L305,95L305,105L265,105ZM15,105L75,105L75,115L15,115ZM85,105L95,105L95,115L85,115ZM145,105L155,105L155,115L145,115ZM205,105L225,105L225,115L205,115ZM235,105L255,105L255,115L235,115ZM275,105L285,105L285,115L275,115ZM15,115L25,115L25,125L15,125ZM45,115L65,115L65,125L45,125ZM75,115L125,115L125,125L75,125ZM165,115L175,115L175,125L165,125ZM195,115L205,115L205,125L195,125ZM215,115L285,115L285,125L215,125ZM295,115L305,115L305,125L295,125ZM25,125L55,125L55,135L25,135ZM85,125L95,125L95,135L85,135ZM105,125L115,125L115,135L105,135ZM135,125L145,125L145,135L135,135ZM175,125L195,125L195,135L175,135ZM205,125L215,125L215,135L205,135ZM245,125L255,125L255,135L245,135ZM265,125L275,125L275,135L265,135ZM15,135L25,135L25,145L15,145ZM45,135L55,135L55,145L45,145ZM75,135L105,135L105,145L75,145ZM125,135L135,135L135,145L125,145ZM145,135L165,135L165,145L145,145ZM175,135L185,135L185,145L175,145ZM205,135L225,135L225,145L205,145ZM245,135L255,135L255,145L245,145ZM265,135L295,135L295,145L265,145ZM25,145L45,145L45,155L25,155ZM115,145L125,145L125,155L115,155ZM135,145L145,145L145,155L135,155ZM155,145L175,145L175,155L155,155ZM205,145L225,145L225,155L205,155ZM245,145L265,145L265,155L245,155ZM275,145L285,145L285,155L275,155ZM15,155L25,155L25,165L15,165ZM45,155L65,155L65,165L45,165ZM75,155L85,155L85,165L75,165ZM125,155L175,155L175,165L125,165ZM195,155L245,155L245,165L195,165ZM255,155L295,155L295,165L255,165ZM15,165L25,165L25,175L15,175ZM35,165L55,165L55,175L35,175ZM95,165L115,165L115,175L95,175ZM125,165L135,165L135,175L125,175ZM145,165L155,165L155,175L145,175ZM175,165L185,165L185,175L175,175ZM205,165L215,165L215,175L205,175ZM225,165L235,165L235,175L225,175ZM245,165L255,165L255,175L245,175ZM285,165L295,165L295,175L285,175ZM15,175L35,175L35,185L15,185ZM45,175L65,175L65,185L45,185ZM75,175L95,175L95,185L75,185ZM105,175L115,175L115,185L105,185ZM135,175L155,175L155,185L135,185ZM175,175L195,175L195,185L175,185ZM205,175L245,175L245,185L205,185ZM265,175L295,175L295,185L265,185ZM15,185L35,185L35,195L15,195ZM105,185L115,185L115,195L105,195ZM145,185L165,185L165,195L145,195ZM175,185L185,185L185,195L175,195ZM195,185L205,185L205,195L195,195ZM215,185L225,185L225,195L215,195ZM235,185L245,185L245,195L235,195ZM255,185L295,185L295,195L255,195ZM65,195L105,195L105,205L65,205ZM115,195L125,195L125,205L115,205ZM165,195L175,195L175,205L165,205ZM195,195L245,195L245,205L195,205ZM255,195L285,195L285,205L255,205ZM295,195L305,195L305,205L295,205ZM35,205L45,205L45,215L35,215ZM55,205L75,205L75,215L55,215ZM85,205L95,205L95,215L85,215ZM105,205L125,205L125,215L105,215ZM135,205L145,205L145,215L135,215ZM155,205L165,205L165,215L155,215ZM175,205L215,205L215,215L175,215ZM245,205L255,205L255,215L245,215ZM275,205L295,205L295,215L275,215ZM15,215L95,215L95,225L15,225ZM105,215L135,215L135,225L105,225ZM145,215L165,215L165,225L145,225ZM175,215L185,215L185,225L175,225ZM205,215L275,215L275,225L205,225ZM95,225L105,225L105,235L95,235ZM135,225L145,225L145,235L135,235ZM215,225L225,225L225,235L215,235ZM255,225L285,225L285,235L255,235ZM15,235L85,235L85,245L15,245ZM105,235L115,235L115,245L105,245ZM125,235L165,235L165,245L125,245ZM215,235L225,235L225,245L215,245ZM235,235L245,235L245,245L235,245ZM255,235L265,235L265,245L255,245ZM275,235L285,235L285,245L275,245ZM295,235L305,235L305,245L295,245ZM15,245L25,245L25,255L15,255ZM75,245L85,245L85,255L75,255ZM95,245L135,245L135,255L95,255ZM145,245L155,245L155,255L145,255ZM175,245L185,245L185,255L175,255ZM215,245L225,245L225,255L215,255ZM255,245L295,245L295,255L255,255ZM15,255L25,255L25,265L15,265ZM35,255L65,255L65,265L35,265ZM75,255L85,255L85,265L75,265ZM95,255L125,255L125,265L95,265ZM135,255L155,255L155,265L135,265ZM175,255L195,255L195,265L175,265ZM205,255L265,255L265,265L205,265ZM295,255L305,255L305,265L295,265ZM15,265L25,265L25,275L15,275ZM35,265L65,265L65,275L35,275ZM75,265L85,265L85,275L75,275ZM105,265L115,265L115,275L105,275ZM145,265L185,265L185,275L145,275ZM245,265L295,265L295,275L245,275ZM15,275L25,275L25,285L15,285ZM35,275L65,275L65,285L35,285ZM75,275L85,275L85,285L75,285ZM175,275L185,275L185,285L175,285ZM195,275L205,275L205,285L195,285ZM225,275L255,275L255,285L225,285ZM275,275L305,275L305,285L275,285ZM15,285L25,285L25,295L15,295ZM75,285L85,285L85,295L75,295ZM95,285L105,285L105,295L95,295ZM115,285L125,285L125,295L115,295ZM135,285L145,285L145,295L135,295ZM155,285L165,285L165,295L155,295ZM175,285L205,285L205,295L175,295ZM215,285L245,285L245,295L215,295ZM255,285L285,285L285,295L255,295ZM15,295L85,295L85,305L15,305ZM95,295L105,295L105,305L95,305ZM115,295L135,295L135,305L115,305ZM145,295L165,295L165,305L145,305ZM185,295L205,295L205,305L185,305ZM235,295L245,295L245,305L235,305ZM255,295L265,295L265,305L255,305ZM285,295L295,295L295,305L285,305Z"/></svg>
