<?xml version="1.0" encoding="UTF-8"?>
<svg id="Layer_1" data-name="Layer 1" xmlns="http://www.w3.org/2000/svg" version="1.1" viewBox="0 0 2500 2500">
  <defs>
    <style>
      .cls-1 {
        fill: #00cc42;
      }

      .cls-1, .cls-2 {
        stroke-width: 0px;
      }

      .cls-2 {
        fill: #fff;
      }
    </style>
  </defs>
  <rect class="cls-1" width="2500" height="2500" rx="57.4" ry="57.4"/>
  <path class="cls-2" d="M854.8,2010.1c126.8,68.9,272,108,426.4,108,494.1,0,894.6-400.5,894.6-894.6s-400.5-894.6-894.6-894.6-894.6,400.5-894.6,894.6,44.3,318.1,121.5,450.4l-121.5,457.1,468.2-120.9ZM675.9,1648.6c-84.6-120.3-134.3-266.9-134.3-425.1,0-408.5,331.1-739.6,739.6-739.6s739.6,331.1,739.6,739.6-331.1,739.6-739.6,739.6-285.8-43.5-401.4-118.3l-283.1,75,79.2-271.2Z"/>
  <path class="cls-2" d="M1729.5,1464.7h0c-2.7-25.7-20-47.5-44.4-56l-183.1-63.9c-18.1-6.3-38.2-1.4-51.3,12.6l-17.7,18.8c-29.2,31-73.5,43.5-114.3,31.2-35.2-10.6-78.9-32.4-127.3-76-48.4-43.6-74.5-84.8-88.7-118.7-16.5-39.3-8.7-84.6,19.2-116.9l16.9-19.5c12.6-14.5,15.4-35,7.3-52.3l-82.4-175.5c-11-23.4-34.5-38.3-60.3-38.4h0c-58.6,0-116.4,47.9-143.9,119.3-27.6,71.6-60.9,265.9,223.5,522.4,284.5,256.4,474.3,203.1,542.7,168.3,68.2-34.7,109.8-97.1,103.7-155.4Z"/>
</svg>