<?xml version="1.0" encoding="UTF-8"?>
<svg xmlns="http://www.w3.org/2000/svg" version="1.1" viewBox="0 0 512 512">
  <defs>
    <style>
      .cls-1 {
        fill: #fff;
      }

      .cls-2 {
        fill: #ffe100;
      }

      .cls-3 {
        fill: #00ad55;
      }

      .cls-4 {
        fill: #ffa800;
      }

      .cls-5 {
        fill: #dd3859;
      }

      .cls-6 {
        fill: #e4667f;
      }

      .cls-7 {
        fill: #00da6c;
      }
    </style>
  </defs>
  <!-- Generator: Adobe Illustrator 28.7.3, SVG Export Plug-In . SVG Version: 1.2.0 Build 164)  -->
  <g>
    <g id="Capa_1">
      <g>
        <path class="cls-4" d="M418.4,461.4V25.6c0-9.4-7.7-17.1-17.1-17.1H119.3c-9.4,0-17.1,7.7-17.1,17.1v461.4c0,9.4,7.7,17.1,17.1,17.1h341.8c-23.9,0-42.7-18.8-42.7-42.7"/>
        <path class="cls-1" d="M324.4,461.4V25.6c0-9.4-7.7-17.1-17.1-17.1H25.3c-9.4,0-17.1,7.7-17.1,17.1v461.4c0,9.4,7.7,17.1,17.1,17.1h341.8c-23.9,0-42.7-18.8-42.7-42.7"/>
        <path class="cls-2" d="M392.7,461.4V25.6c0-9.4-7.7-17.1-17.1-17.1H50.9c-9.4,0-17.1,7.7-17.1,17.1v461.4c0,9.4,7.7,17.1,17.1,17.1h384.5c-23.9,0-42.7-18.8-42.7-42.7"/>
        <polygon class="cls-5" points="50.9 282 375.6 282 375.6 247.8 50.9 247.8 50.9 282"/>
        <polygon class="cls-6" points="50.9 282 350 282 350 247.8 50.9 247.8 50.9 282"/>
        <path class="cls-4" d="M461.1,504.1h0c-23.9,0-42.7-18.8-42.7-42.7v-179.4h68.4c9.4,0,17.1,7.7,17.1,17.1v162.4c0,23.9-18.8,42.7-42.7,42.7"/>
        <path class="cls-2" d="M448.3,504.1h0c-16.2,0-29.9-18.8-29.9-42.7v-179.4h47.9c6.8,0,12,7.7,12,17.1v162.4c0,23.9-13.7,42.7-29.9,42.7"/>
        <polygon class="cls-3" points="50.9 205.1 256 205.1 256 51.3 50.9 51.3 50.9 205.1"/>
        <polygon class="cls-7" points="50.9 205.1 230.4 205.1 230.4 51.3 50.9 51.3 50.9 205.1"/>
        <path d="M461.1,512.7c-28.2,0-51.3-23.1-51.3-51.3v-179.4c0-5.1,3.4-8.5,8.5-8.5h68.4c14.5,0,25.6,11.1,25.6,25.6v162.3c0,28.2-23.1,51.3-51.3,51.3ZM426.9,290.5v170.9c0,18.8,15.4,34.2,34.2,34.2s34.2-15.4,34.2-34.2v-162.4c0-5.1-4.3-8.5-8.5-8.5h-59.8Z"/>
        <path d="M461.1,512.7H25.3c-14.5,0-25.6-11.1-25.6-25.6V25.6C-.3,11.1,10.8,0,25.3,0h376c14.5,0,25.6,11.1,25.6,25.6v435.8c0,18.8,15.4,34.2,34.2,34.2s8.5,3.4,8.5,8.5-3.4,8.5-8.5,8.5ZM25.3,17.1c-4.3,0-8.5,4.3-8.5,8.5v461.4c0,5.1,4.3,8.5,8.5,8.5h397.3c-8.5-9.4-12.8-21.4-12.8-34.2V25.6c0-5.1-4.3-8.5-8.5-8.5,0,0-376,0-376,0Z"/>
        <path d="M256,213.6H50.9c-5.1,0-8.5-3.4-8.5-8.5V51.3c0-5.1,3.4-8.5,8.5-8.5h205.1c5.1,0,8.5,3.4,8.5,8.5v153.8c0,5.1-3.4,8.5-8.5,8.5ZM59.5,196.5h188V59.8H59.5v136.7Z"/>
        <path d="M367.1,68.4h-42.7c-5.1,0-8.5-3.4-8.5-8.5s3.4-8.5,8.5-8.5h42.7c5.1,0,8.5,3.4,8.5,8.5s-3.4,8.5-8.5,8.5Z"/>
        <path d="M375.6,111.1h-76.9c-5.1,0-8.5-3.4-8.5-8.5s3.4-8.5,8.5-8.5h76.9c5.1,0,8.5,3.4,8.5,8.5,0,5.1-3.4,8.5-8.5,8.5Z"/>
        <path d="M350,153.8h-34.2c-5.1,0-8.5-3.4-8.5-8.5s3.4-8.5,8.5-8.5h34.2c5.1,0,8.5,3.4,8.5,8.5s-3.4,8.5-8.5,8.5Z"/>
        <path d="M375.6,290.5H50.9c-5.1,0-8.5-3.4-8.5-8.5v-34.2c0-5.1,3.4-8.5,8.5-8.5h324.7c5.1,0,8.5,3.4,8.5,8.5v34.2c0,5.1-3.4,8.5-8.5,8.5ZM59.5,273.4h307.6v-17.1H59.5v17.1Z"/>
        <path d="M221.8,333.2H50.9c-5.1,0-8.5-3.4-8.5-8.5s3.4-8.5,8.5-8.5h170.9c5.1,0,8.5,3.4,8.5,8.5,0,5.1-3.4,8.5-8.5,8.5Z"/>
        <path d="M375.6,333.2h-102.5c-5.1,0-8.5-3.4-8.5-8.5s3.4-8.5,8.5-8.5h102.5c5.1,0,8.5,3.4,8.5,8.5s-3.4,8.5-8.5,8.5Z"/>
        <path d="M324.4,376h-68.4c-5.1,0-8.5-3.4-8.5-8.5s3.4-8.5,8.5-8.5h68.4c5.1,0,8.5,3.4,8.5,8.5s-3.4,8.5-8.5,8.5Z"/>
        <path d="M367.1,418.7h-94c-5.1,0-8.5-3.4-8.5-8.5s3.4-8.5,8.5-8.5h94c5.1,0,8.5,3.4,8.5,8.5,0,5.1-3.4,8.5-8.5,8.5Z"/>
        <path d="M375.6,461.4h-119.6c-5.1,0-8.5-3.4-8.5-8.5s3.4-8.5,8.5-8.5h119.6c5.1,0,8.5,3.4,8.5,8.5s-3.4,8.5-8.5,8.5Z"/>
        <path d="M179.1,461.4H59.5c-5.1,0-8.5-3.4-8.5-8.5s3.4-8.5,8.5-8.5h119.6c5.1,0,8.5,3.4,8.5,8.5s-3.4,8.5-8.5,8.5Z"/>
        <path d="M179.1,418.7h-94c-5.1,0-8.5-3.4-8.5-8.5s3.4-8.5,8.5-8.5h94c5.1,0,8.5,3.4,8.5,8.5s-3.4,8.5-8.5,8.5Z"/>
        <path d="M196.2,376h-119.6c-5.1,0-8.5-3.4-8.5-8.5s3.4-8.5,8.5-8.5h119.6c5.1,0,8.5,3.4,8.5,8.5s-3.4,8.5-8.5,8.5Z"/>
        <path d="M358.5,205.1h-59.8c-5.1,0-8.5-3.4-8.5-8.5s3.4-8.5,8.5-8.5h59.8c5.1,0,8.5,3.4,8.5,8.5,0,5.1-3.4,8.5-8.5,8.5Z"/>
      </g>
    </g>
  </g>
</svg>