<?xml version="1.0" encoding="UTF-8"?>
<svg xmlns="http://www.w3.org/2000/svg" version="1.1" viewBox="0 0 512 512">
  <defs>
    <style>
      .cls-1 {
        fill: #231f20;
        isolation: isolate;
        opacity: .2;
      }

      .cls-2 {
        fill: #fad564;
      }

      .cls-3 {
        fill: #f4c23f;
      }

      .cls-4 {
        fill: #46a1f8;
      }

      .cls-5 {
        fill: #323150;
      }

      .cls-6 {
        fill: #dfdafd;
      }

      .cls-7 {
        fill: #67baeb;
      }

      .cls-8 {
        fill: #4d4c78;
      }

      .cls-9 {
        fill: #c8c2e9;
      }

      .cls-10 {
        fill: #f8881b;
      }

      .cls-11 {
        fill: #3084d6;
      }
    </style>
  </defs>
  <!-- Generator: Adobe Illustrator 28.7.3, SVG Export Plug-In . SVG Version: 1.2.0 Build 164)  -->
  <g>
    <g id="Capa_1">
      <g>
        <polygon class="cls-4" points="6.1 449.2 35.7 399.2 484.1 401.7 505.9 449.2 6.1 449.2"/>
        <path class="cls-11" d="M177.3,400l-141.6-.8-11.8,19.9c21.9-1.6,121.1-6.6,177,30.2h43.2c-12.5-13-34.9-33-66.9-49.3Z"/>
        <path class="cls-11" d="M311,449.2c61.6-40.4,175.6-30.4,181.2-29.8l-8.1-17.7-151.1-.9c-31.1,16.1-52.9,35.6-65.2,48.4h43.2Z"/>
        <polygon class="cls-9" points="166.6 247.8 35.7 360.2 256 449.2 256 271.2 166.6 247.8"/>
        <polygon class="cls-9" points="345.4 247.8 256 271.2 256 449.2 476.3 360.2 345.4 247.8"/>
        <polygon class="cls-1" points="267.8 268.1 256.7 271.1 256 450.4 292.6 434.4 267.8 268.1"/>
        <polygon class="cls-1" points="250.4 269.8 256 271.2 256 449.2 219.4 434.4 250.4 269.8"/>
        <path class="cls-3" d="M333.4,189.8c0-43-35.1-77.8-78.1-77.4-43.1.4-77.2,35.6-76.7,78.3.2,18.8,7.3,36.9,19.9,50.9,15.8,17.6,24.8,40.3,24.8,63.9h0c0,.1,65.5.1,65.5.1h0c0-23.7,8.7-46.4,24.5-63.8,13-14.2,20.2-32.8,20.1-52.1Z"/>
        <path class="cls-8" d="M223.1,305.5h65.8v27.7c0,18.2-14.7,32.9-32.9,32.9h0c-18.2,0-32.9-14.7-32.9-32.9v-27.7h0Z"/>
        <polygon class="cls-5" points="288.9 328.8 288.9 328.8 288.9 317.6 288.9 317.6 223.1 317.6 223.1 328.8 288.9 328.8"/>
        <path class="cls-10" d="M256,83.5c-3.1,0-5.6-2.5-5.6-5.6v-30.9c0-3.1,2.5-5.6,5.6-5.6s5.6,2.5,5.6,5.6v30.9c0,3.1-2.5,5.6-5.6,5.6Z"/>
        <path class="cls-10" d="M177.6,116c-1.5,0-2.9-.6-4-1.7l-21.8-21.8c-2.2-2.2-2.2-5.8,0-8s5.8-2.2,8,0l21.8,21.9c2.2,2.2,2.2,5.8,0,8-1,1-2.5,1.6-3.9,1.6Z"/>
        <path class="cls-10" d="M334.4,116c1.5,0,2.9-.6,4-1.7l21.8-21.8c2.2-2.2,2.2-5.8,0-8s-5.8-2.2-8,0h0l-21.8,21.9c-2.2,2.2-2.2,5.8,0,8,1,1,2.5,1.6,3.9,1.6h0Z"/>
        <path class="cls-10" d="M145.1,194.5h-30.9c-3.1,0-5.6-2.5-5.6-5.6s2.5-5.6,5.6-5.6h30.9c3.1,0,5.6,2.5,5.6,5.6s-2.5,5.6-5.6,5.6Z"/>
        <path class="cls-10" d="M397.9,194.5h-30.9c-3.1,0-5.6-2.5-5.6-5.6s2.5-5.6,5.6-5.6h30.9c3.1,0,5.6,2.5,5.6,5.6s-2.5,5.6-5.6,5.6Z"/>
        <rect class="cls-5" x="217.6" y="449.2" width="76.8" height="21.4"/>
        <rect class="cls-7" x="6.1" y="449.2" width="211.5" height="21.4"/>
        <rect class="cls-7" x="294.4" y="449.2" width="211.5" height="21.4"/>
        <path class="cls-8" d="M256,449.2s-74.8-102.3-220.3-89l-16.2,45.7s142.2-14,198.1,43.4h38.4Z"/>
        <path class="cls-8" d="M256,449.2s74.8-102.3,220.3-89l16.2,45.7s-142.2-14-198.1,43.4h-38.4Z"/>
        <path class="cls-2" d="M255.3,112.4c-27,.3-50.7,14.4-64.3,35.6,2.1,60.2,49,109,108.4,113.9,3.7-7.3,8.4-14,13.9-20,13-14.2,20.2-32.8,20.1-52.1,0-43-35.1-77.8-78.1-77.4Z"/>
        <path class="cls-6" d="M349.8,264.6h0c3.4-3.8,9.1-4.1,12.9-.8l30.1,26.7c3.8,3.4,4.1,9.1.8,12.9h0c-3.4,3.8-9.1,4.1-12.9.8l-30.1-26.7c-3.8-3.4-4.1-9.1-.8-12.9Z"/>
      </g>
    </g>
  </g>
</svg>