<?xml version="1.0" encoding="UTF-8"?>
<svg xmlns="http://www.w3.org/2000/svg" version="1.1" viewBox="0 0 512 512">
  <defs>
    <style>
      .cls-1 {
        fill: #ed5b3a;
      }

      .cls-2 {
        fill: #f29233;
      }

      .cls-3 {
        fill: #d32a0f;
      }

      .cls-4 {
        fill: #eadaea;
      }
    </style>
  </defs>
  <!-- Generator: Adobe Illustrator 28.7.3, SVG Export Plug-In . SVG Version: 1.2.0 Build 164)  -->
  <g>
    <g id="Capa_1">
      <g>
        <polygon class="cls-1" points="145.8 490.7 480.6 269.9 242.1 31.4 21.3 366.2 145.8 490.7"/>
        <polygon class="cls-4" points="297.5 136.6 73.5 361.4 62.2 350.2 252.6 90.8 297.5 136.6"/>
        <g>
          <path class="cls-3" d="M159.4,477.9c7.2,7.2,8,18.5,1.6,24.9h0c-6.4,6.4-17.7,5.6-24.9-1.6L10.8,375.9c-7.2-7.2-8-18.5-1.6-24.9h0c6.4-6.4,17.7-5.6,24.9,1.6l125.3,125.3Z"/>
          <path class="cls-3" d="M497.5,253c7.2,7.2,8,18.5,1.6,24.9h0c-6.4,6.4-17.7,5.6-24.9-1.6L235.7,37.8c-7.2-7.2-8-18.5-1.6-24.9h0c6.4-6.4,17.7-5.6,24.9,1.6l238.5,238.5Z"/>
          <path class="cls-3" d="M375.4,440.9l-53,38.5c-39.3,28.9-94.8,20.1-123.7-19.3l-4.8-7.2c-28.9-39.3-20.1-94.8,19.3-123.7l53-38.5c39.3-28.9,94.8-20.1,123.7,19.3l4.8,7.2c28.9,39.3,20.1,95.6-19.3,123.7ZM233.3,358.2c-24.1,16.9-28.9,50.6-12,74.7l5.6,7.2c16.9,24.1,50.6,28.9,74.7,12l53-38.5c24.1-16.9,28.9-50.6,12-74.7l-4.8-7.2c-16.9-24.1-50.6-28.9-74.7-12l-53.8,38.5Z"/>
          <polygon class="cls-3" points="244.5 33 242.1 31.4 234.9 41.8 244.5 33"/>
          <polygon class="cls-3" points="94.4 438.5 145.8 490.7 480.6 269.9 372.2 160.7 94.4 438.5"/>
        </g>
        <g>
          <path class="cls-2" d="M436.5,143.8c-3.2,0-5.6-4.8-5.6-8h0c0-3.2,2.4-8,5.6-8h65c3.2,0,5.6,4.8,5.6,8h0c0,3.2-2.4,8-5.6,8h-65Z"/>
          <path class="cls-2" d="M435.7,92.4c-2.4,2.4-7.2.8-9.6-1.6h0c-2.4-2.4-4-7.2-1.6-9.6l45.8-45.8c2.4-2.4,7.2-.8,9.6,1.6h0c2.4,2.4,4,7.2,1.6,9.6l-45.8,45.8Z"/>
          <path class="cls-2" d="M368.2,75.5c0,3.2,4.8,5.6,8,5.6h0c3.2,0,8-2.4,8-5.6V10.5c0-3.2-4.8-5.6-8-5.6h0c-3.2,0-8,2.4-8,5.6v65Z"/>
        </g>
      </g>
    </g>
  </g>
</svg>