<?xml version="1.0" encoding="UTF-8"?>
<svg xmlns="http://www.w3.org/2000/svg" version="1.1" viewBox="0 0 512 512">
  <defs>
    <style>
      .cls-1 {
        fill: #edebeb;
      }

      .cls-2 {
        fill: #9cd2f4;
      }

      .cls-3 {
        fill: #8cc1ea;
      }

      .cls-4 {
        fill: #e0b76e;
      }

      .cls-5 {
        fill: #f2ca7f;
      }

      .cls-6 {
        fill: #79b1d6;
      }
    </style>
  </defs>
  <!-- Generator: Adobe Illustrator 28.7.3, SVG Export Plug-In . SVG Version: 1.2.0 Build 164)  -->
  <g>
    <g id="Capa_1">
      <g>
        <polygon class="cls-4" points="345.1 257.9 256 503.8 88.6 406.7 88.6 212.4 345.1 257.9"/>
        <polygon class="cls-5" points="256 115.3 88.6 212.4 256 309.5 256 503.8 423.4 406.7 423.4 212.4 256 115.3"/>
        <g>
          <polyline class="cls-1" points="310.3 225.3 355.4 251.4 355.4 446.2 324.4 464.1 324.4 269.4 324.4 269.4 279.3 243.3"/>
          <polyline class="cls-1" points="232.9 243.3 187.9 269.4 187.9 269.4 187.9 464.1 156.9 446.2 156.9 251.4 201.9 225.3"/>
        </g>
        <polygon class="cls-6" points="313.3 98.5 256 256.7 148.4 194.2 148.4 69.3 313.3 98.5"/>
        <polygon class="cls-3" points="256 6.8 148.4 69.3 256 131.8 256 256.7 363.6 194.2 363.6 69.3 256 6.8"/>
        <polygon class="cls-2" points="362.5 68.5 323.5 91.2 292.5 109.2 254.9 131 147.2 68.5 184.9 46.7 215.9 28.7 254.9 6.1 362.5 68.5"/>
        <path d="M432.3,211.2c0-3.2-1.7-6.1-4.3-7.6l-56.9-33v-99.9c0-3.2-1.7-6.1-4.3-7.6l-47.1-27.3c-4.1-2.4-9.3-.9-11.6,3.3-2.3,4.2-.9,9.6,3.2,11.9l33.9,19.7-89.2,51.8-89.2-51.8,89.2-51.8,27.5,16c4.1,2.4,9.3.9,11.6-3.3,2.3-4.2.9-9.6-3.2-11.9l-31.7-18.4c-2.6-1.5-5.8-1.5-8.4,0l-106.5,61.8c-2.7,1.6-4.3,4.5-4.3,7.6v100l-56.9,33c-2.6,1.5-4.3,4.4-4.3,7.5,0,0,0,0,0,0v28.4c0,4.8,3.8,8.8,8.5,8.8s8.5-3.9,8.5-8.8v-13.4l51.6,29.9v174.6l-51.6-29.9v-132c0-4.8-3.8-8.8-8.5-8.8s-8.5,3.9-8.5,8.8v137.1c0,3.2,1.7,6.1,4.3,7.6l167.7,97.4c1.3.8,2.7,1.1,4.2,1.1s2.9-.4,4.2-1.1l167.7-97.4c2.7-1.6,4.3-4.5,4.3-7.6v-194.7s0,0,0,0ZM406.4,211.2l-51.1,29.6-27.9-16.2,39.2-22.8c2.7-1.6,4.3-4.5,4.3-7.6v-3.6l35.4,20.5ZM215.6,242.7l-27.9,16.2-13.7-7.9,27.9-16.2,13.7,7.9ZM251.8,263.7c1.3.8,2.7,1.1,4.2,1.1s2.9-.4,4.2-1.1l19-11,27.9,16.2-51.1,29.6-50.9-29.6,27.9-16.2,18.9,11ZM247.5,313.7v174.6l-51.1-29.7v-174.6l51.1,29.7ZM264.5,313.7l51.4-29.8v174.6l-51.4,29.8v-174.6ZM324.4,258.8l-27.9-16.2,13.7-7.9,27.9,16.2-13.7,7.9ZM354,85.6v103.6l-89.5,52v-103.6l89.5-52ZM247.5,137.5v103.6l-89.5-52v-103.6l89.5,52ZM140.9,190.7v3.6c0,3.2,1.7,6.1,4.3,7.6l39.3,22.8-27.9,16.2-51.2-29.7,35.4-20.5ZM165.4,266l14,8.1v174.6l-14-8.1v-174.6ZM363.9,430.6v-121.5c0-4.8-3.8-8.8-8.5-8.8s-8.5,3.9-8.5,8.8v131.4l-14,8.1v-174.6l14-8.1v14c0,4.8,3.8,8.8,8.5,8.8s8.5-3.9,8.5-8.8v-23.9l51.4-29.8v174.6l-51.4,29.8Z"/>
      </g>
    </g>
  </g>
</svg>