<?xml version="1.0" encoding="UTF-8"?>
<svg xmlns="http://www.w3.org/2000/svg" version="1.1" viewBox="0 0 512 512">
  <defs>
    <style>
      .cls-1 {
        fill: #7eb35b;
      }

      .cls-2 {
        fill: #fff;
      }

      .cls-3 {
        fill: #a6e7ff;
      }

      .cls-4 {
        fill: #ffe97a;
      }

      .cls-5 {
        fill: #6c994e;
      }

      .cls-6 {
        isolation: isolate;
        opacity: .1;
      }

      .cls-7 {
        fill: #a5eb78;
      }

      .cls-8 {
        fill: #b4bbcc;
      }
    </style>
  </defs>
  <!-- Generator: Adobe Illustrator 28.7.3, SVG Export Plug-In . SVG Version: 1.2.0 Build 164)  -->
  <g>
    <g id="Layer_1">
      <g>
        <path class="cls-8" d="M448.2,60.2H63.8c-20.5,0-37.1,16.6-37.1,37.1v317.5c0,20.5,16.6,37.1,37.1,37.1h384.5c20.5,0,37.1-16.6,37.1-37.1V97.2c0-20.5-16.6-37.1-37.1-37.1Z"/>
        <path class="cls-3" d="M450.4,235.7v-117c0-13-10.6-23.6-23.6-23.6H85.1c-13,0-23.6,10.6-23.6,23.6v215l44.8,40.8,344.1-138.7Z"/>
        <path class="cls-2" d="M61.6,168.9c8.4-6.6,18.9-10.5,30.4-10.5,21.7,0,40.2,14.1,46.6,33.7,7.9-4.6,17-7.3,26.8-7.3,27.1,0,49.4,20.3,52.6,46.6,23.1,2.5,41.2,21.5,42.2,45l-57.3,56-141.3,1.1v-164.6Z"/>
        <path class="cls-5" d="M168.2,304.9s-61.6-23.2-106.6,28.7v59.8c0,13,10.6,23.6,23.6,23.6l93.7-70.9-10.7-41.2Z"/>
        <path class="cls-6" d="M61.6,364.7c45.1-51.9,106.6-28.7,106.6-28.7l3.9,15.2,6.7-5.1-10.7-41.2s-61.6-23.2-106.6,28.7v31.1h0Z"/>
        <path class="cls-1" d="M85.1,417c31.3-83,129.4-181,211-125.7l-27.1,87.2-69,38.5h-114.8Z"/>
        <path class="cls-6" d="M293.3,300.3l2.8-9c-81.6-55.3-179.7,42.7-211,125.7h29.8c34.3-69.4,109.3-139.6,178.4-116.7Z"/>
        <path class="cls-7" d="M450.4,393.4v-157.7c-157-15.6-250.5,181.3-250.5,181.3h226.9c13,0,23.6-10.6,23.6-23.6Z"/>
        <path class="cls-6" d="M450.4,255.5v-19.9c-157-15.6-250.5,181.3-250.5,181.3h31.9c27.5-47.3,104.6-159.4,218.5-161.4Z"/>
        <circle class="cls-4" cx="334.4" cy="182.5" r="33.3"/>
        <path class="cls-6" d="M311.5,192.9c0-18.4,14.9-33.3,33.3-33.3s12.6,1.9,17.8,5.1c-5.9-9.3-16.3-15.5-28.1-15.5-18.4,0-33.3,14.9-33.3,33.3s6.2,22.2,15.5,28.1c-3.3-5.1-5.1-11.2-5.1-17.8Z"/>
        <path d="M63.8,459.6h274.7c4.3,0,7.8-3.5,7.8-7.8s-3.5-7.8-7.8-7.8H63.8c-16.1,0-29.3-13.1-29.3-29.3V97.2c0-16.1,13.1-29.3,29.3-29.3h52.4c4.3,0,7.8-3.5,7.8-7.8s-3.5-7.8-7.8-7.8h-52.4c-24.7,0-44.8,20.1-44.8,44.8v317.5c0,24.7,20.1,44.8,44.8,44.8Z"/>
        <path d="M144.9,68h303.3c16.1,0,29.3,13.1,29.3,29.3v317.5c0,16.1-13.1,29.3-29.3,29.3h-78.6c-4.3,0-7.8,3.5-7.8,7.8s3.5,7.8,7.8,7.8h78.6c24.7,0,44.8-20.1,44.8-44.8V97.2c0-24.7-20.1-44.8-44.8-44.8H144.9c-4.3,0-7.8,3.5-7.8,7.8s3.5,7.8,7.8,7.8Z"/>
        <path d="M458.2,393.4v-157.7h0v-117c0-17.3-14.1-31.3-31.3-31.3H85.1c-17.3,0-31.3,14.1-31.3,31.3v50.1c0,.1,0,.2,0,.3v224.4c0,17.3,14,31.3,31.2,31.3,0,0,0,0,.1,0s0,0,0,0h114.8s0,0,0,0c0,0,0,0,0,0h226.9c17.3,0,31.3-14.1,31.3-31.4ZM69.3,118.6c0-8.7,7.1-15.8,15.8-15.8h341.7c8.7,0,15.8,7.1,15.8,15.8v108.7c-14.3-.8-28.6.1-42.6,2.6-15.5,2.8-31,7.7-46.1,14.4-13.6,6.1-27.2,14-40.4,23.3-6.1,4.3-12.1,9-18.1,13.9-9-5.4-18.4-9.3-28.1-11.6-3.5-22.3-20.6-40.6-42.6-45.4-6.1-27.5-30.6-47.6-59.3-47.6s-15.6,1.5-22.8,4.4c-9.6-18.7-29-30.8-50.6-30.8s-15.6,1.6-22.6,4.7v-36.7h0ZM69.3,172.9c6.7-4.4,14.5-6.7,22.6-6.7,17.9,0,33.6,11.4,39.3,28.3.7,2.2,2.4,4,4.6,4.8,2.2.8,4.6.6,6.7-.6,6.9-4,14.8-6.2,22.8-6.2,22.9,0,42.2,17.1,44.9,39.7.4,3.6,3.3,6.4,6.9,6.8,16.1,1.7,29.4,13.4,33.8,28.5-12.7-.8-25.8.9-39.1,5.1-15.7,5-30.8,13.2-45,23.5-6.3-1.8-19.3-4.8-35.3-4.3-17.1.6-40.4,5.3-62.2,23.2v-142.3h0ZM80.2,408.4c-6.3-2.1-10.8-8-10.8-15v-56.8c16.8-18.3,37.6-28.1,62.1-29,7.5-.3,14.3.3,19.8,1.2-31.5,27.7-57,65.3-71.1,99.6ZM235.4,357.9c-3.7-2.2-8.5-1.1-10.7,2.6-3.2,5.3-6.7,10.7-10.1,15.9-6.8,10.5-13.8,21.2-19.5,32.7h-98.4c27.5-63.6,80.1-109,119.9-121.6,23.8-7.6,46.1-5.9,66.5,4.9-1.5,1.4-3,2.8-4.5,4.2-9.9,9.5-19.8,20.1-29.2,31.3-1.1,1.3-2.1,2.6-3.2,3.9-2.7,3.3-2.2,8.2,1.1,10.9,3.2,2.6,8.2,2.2,10.9-1.1,1-1.2,2-2.5,3.1-3.7,9.1-10.8,18.5-21,28-30.1,10.8-10.3,22-19.6,33.2-27.5,12.4-8.8,25.1-16.1,37.8-21.8,13.9-6.3,28.2-10.8,42.4-13.3,13.1-2.4,26.5-3.2,39.8-2.4v150.5c0,8.7-7.1,15.8-15.8,15.8h-214.2c4.6-8.3,9.8-16.4,15-24.2,3.5-5.3,7-10.8,10.4-16.3,2.2-3.7,1.1-8.5-2.6-10.7Z"/>
        <path d="M334.4,223.6c22.6,0,41-18.4,41-41s-18.4-41-41-41-41,18.4-41,41,18.4,41,41,41ZM334.4,157c14.1,0,25.5,11.4,25.5,25.5s-11.4,25.5-25.5,25.5-25.5-11.4-25.5-25.5c0-14.1,11.4-25.5,25.5-25.5Z"/>
      </g>
    </g>
  </g>
</svg>