<?xml version="1.0" encoding="UTF-8"?>
<svg xmlns="http://www.w3.org/2000/svg" version="1.1" xmlns:xlink="http://www.w3.org/1999/xlink" viewBox="0 0 512 512">
  <defs>
    <style>
      .cls-1 {
        fill: #36c63f;
      }

      .cls-2 {
        fill: #009547;
      }

      .cls-3 {
        fill: #0086be;
      }

      .cls-4 {
        fill: #00a651;
      }

      .cls-5 {
        fill: none;
      }

      .cls-6 {
        fill: #00ac4e;
      }

      .cls-7 {
        fill: #231f20;
      }

      .cls-8 {
        fill: #fabb1b;
      }

      .cls-9 {
        fill: #009dd3;
      }

      .cls-10 {
        fill: #ffd311;
      }

      .cls-11 {
        fill: #03687f;
      }

      .cls-12 {
        clip-path: url(#clippath);
      }
    </style>
    <clipPath id="clippath">
      <path class="cls-5" d="M464,32H48C20.8,32,0,52.8,0,80v256c0,27.2,20.8,48,48,48h416c27.2,0,48-20.8,48-48V80c0-27.2-20.8-48-48-48ZM123.2,228.8c6.4,6.4,6.4,16,0,22.4s-6.4,4.8-11.2,4.8-8-1.6-11.2-4.8l-32-32c-6.4-6.4-6.4-16,0-22.4l32-32c6.4-6.4,16-6.4,22.4,0s6.4,16,0,22.4l-20.8,20.8,20.8,20.8ZM443.2,219.2l-32,32c-3.2,3.2-6.4,4.8-11.2,4.8s-8-1.6-11.2-4.8c-6.4-6.4-6.4-16,0-22.4l20.8-20.8-20.8-20.8c-6.4-6.4-6.4-16,0-22.4,6.4-6.4,16-6.4,22.4,0l32,32c6.4,6.4,6.4,16,0,22.4Z"/>
    </clipPath>
  </defs>
  <!-- Generator: Adobe Illustrator 28.7.3, SVG Export Plug-In . SVG Version: 1.2.0 Build 164)  -->
  <g>
    <g id="Capa_1">
      <rect class="cls-11" x="30.2" y="137" width="419.6" height="156.4"/>
      <circle class="cls-7" cx="256" cy="448" r="32"/>
      <circle class="cls-11" cx="160" cy="448" r="32"/>
      <circle class="cls-7" cx="352" cy="448" r="32"/>
      <g class="cls-12">
        <g>
          <polygon class="cls-4" points="519.7 250.8 519.7 351.5 323.5 228.8 323.8 228.4 402.2 166.8 519.7 250.8"/>
          <polygon class="cls-1" points="519.7 351.5 519.7 396.3 -6.5 396.3 -6.5 317.9 251 183.6 323.5 228.8 519.7 351.5"/>
          <polygon class="cls-9" points="519.7 4.5 519.7 250.8 402.2 166.8 323.8 228.4 323.5 228.8 251 183.6 -6.5 317.9 -6.5 4.5 519.7 4.5"/>
          <polygon class="cls-3" points="-6.5 4.5 -6.5 317.9 251 183.6 256.6 187.1 256.6 4.5 -6.5 4.5"/>
          <polygon class="cls-2" points="519.7 299.6 360.5 199.6 323.8 228.4 323.5 228.8 519.7 351.5 519.7 299.6"/>
          <polygon class="cls-6" points="519.7 351.5 323.5 228.8 251 183.6 211.5 204.2 519.7 395.9 519.7 351.5"/>
          <path class="cls-10" d="M116.7,54.9c37.1,0,67.2,30.1,67.2,67.2s-30.1,67.2-67.2,67.2-67.2-30.1-67.2-67.2,30.1-67.2,67.2-67.2Z"/>
          <path class="cls-8" d="M90.4,60.5c-24,10.3-40.8,34.1-40.8,61.8s30.1,67.2,67.2,67.2,40.6-10.2,52.9-26c-37.9-23-66.6-59.5-79.3-103Z"/>
          <path d="M116.7,197.6c41.7,0,75.6-33.9,75.6-75.6s-33.9-75.6-75.6-75.6S41.1,80.4,41.1,122s33.9,75.6,75.6,75.6ZM116.7,63.3c32.4,0,58.8,26.4,58.8,58.8s-26.4,58.8-58.8,58.8-58.8-26.4-58.8-58.8,26.4-58.8,58.8-58.8Z"/>
        </g>
      </g>
    </g>
  </g>
</svg>