<?xml version="1.0" encoding="UTF-8"?>
<svg xmlns="http://www.w3.org/2000/svg" version="1.1" viewBox="0 0 512 512">
  <defs>
    <style>
      .cls-1 {
        fill: #cee8fa;
      }

      .cls-2 {
        fill: #2d527c;
      }
    </style>
  </defs>
  <!-- Generator: Adobe Illustrator 28.7.3, SVG Export Plug-In . SVG Version: 1.2.0 Build 164)  -->
  <g>
    <g id="Layer_1">
      <g>
        <path class="cls-1" d="M303.5,427.5h122.7V84.5H85.8v343.1h132.6M222.6,427.5h-116.7l94.6-168.2,103,168.2M320.6,244.1c-24.3,0-44-19.7-44-44s19.7-44,44-44,44,19.7,44,44-19.7,44-44,44Z"/>
        <g>
          <path class="cls-2" d="M303.5,442.2c-.4,0-.9,0-1.3,0-2-.2-3.9-.8-5.7-1.7-1.9-1-3.6-2.5-5-4.4-.2-.3-.5-.7-.7-1l-89.8-146.7-70.1,124.6h91.6c8.1,0,14.7,6.6,14.7,14.7s-6.6,14.7-14.7,14.7H85.8c-8.1,0-14.7-6.6-14.7-14.7V84.5c0-8.1,6.6-14.7,14.7-14.7h340.5c8.1,0,14.7,6.6,14.7,14.7v343.1c0,8.1-6.6,14.7-14.7,14.7h-122.5c0,0-.2,0-.2,0ZM311.7,412.9h99.8V99.1H100.4v308.2l87.3-155.2c2.6-4.5,7.3-7.4,12.5-7.5,5.2-.1,10.1,2.6,12.8,7l98.7,161.2ZM320.6,258.8c-32.4,0-58.7-26.3-58.7-58.7s26.3-58.7,58.7-58.7,58.7,26.3,58.7,58.7-26.3,58.7-58.7,58.7ZM320.6,170.8c-16.2,0-29.4,13.2-29.4,29.4s13.2,29.4,29.4,29.4,29.4-13.2,29.4-29.4-13.2-29.4-29.4-29.4Z"/>
          <path class="cls-2" d="M490.6,102.9c-8.1,0-14.7-6.6-14.7-14.7v-54.8h-54.8c-8.1,0-14.7-6.6-14.7-14.7s6.6-14.7,14.7-14.7h69.5c8.1,0,14.7,6.6,14.7,14.7v69.5c0,8.1-6.6,14.7-14.7,14.7Z"/>
          <path class="cls-2" d="M21.4,102.9c-8.1,0-14.7-6.6-14.7-14.7V18.7c0-8.1,6.6-14.7,14.7-14.7h69.5c8.1,0,14.7,6.6,14.7,14.7s-6.6,14.7-14.7,14.7h-54.8v54.8c0,8.1-6.6,14.7-14.7,14.7Z"/>
          <path class="cls-2" d="M90.9,507.9H21.4c-8.1,0-14.7-6.6-14.7-14.7v-69.5c0-8.1,6.6-14.7,14.7-14.7s14.7,6.6,14.7,14.7v54.8h54.8c8.1,0,14.7,6.6,14.7,14.7s-6.6,14.7-14.7,14.7Z"/>
          <path class="cls-2" d="M490.6,507.9h-69.5c-8.1,0-14.7-6.6-14.7-14.7s6.6-14.7,14.7-14.7h54.8v-54.8c0-8.1,6.6-14.7,14.7-14.7s14.7,6.6,14.7,14.7v69.5c0,8.1-6.6,14.7-14.7,14.7Z"/>
        </g>
      </g>
    </g>
  </g>
</svg>