<?xml version="1.0" encoding="UTF-8"?>
<svg xmlns="http://www.w3.org/2000/svg" version="1.1" viewBox="0 0 512 512">
  <defs>
    <style>
      .cls-1 {
        fill: #ff8e00;
      }

      .cls-2 {
        fill: #ffba00;
      }

      .cls-3 {
        fill: #6499f3;
      }

      .cls-4 {
        fill: #ffb995;
      }

      .cls-5 {
        fill: #e04c00;
      }

      .cls-6 {
        fill: #ff7d3c;
      }

      .cls-7 {
        fill: #2d64bc;
      }
    </style>
  </defs>
  <!-- Generator: Adobe Illustrator 28.7.3, SVG Export Plug-In . SVG Version: 1.2.0 Build 164)  -->
  <g>
    <g id="Capa_1">
      <g>
        <path class="cls-1" d="M455.6,88.9l-143.7-31.3-56,9.7-31.3,77.6,31.3,78.7,56,8.6,143.7-31.3c30.9,0,56-25.1,56-56,0-30.9-25.1-56-56-56Z"/>
        <path class="cls-2" d="M256,88.9H56.4v111.9h199.6c30.9,0,56-25.1,56-56h0c0-30.9-25.1-56-56-56Z"/>
        <path class="cls-1" d="M56.4,88.9l-20.9,56,20.9,56c30.9,0,56-25.1,56-56,0-30.9-25.1-56-56-56Z"/>
        <path class="cls-5" d="M452,200.8H109.1v119.1s59.6,0,59.6,0l171.5,192.7h171.5v-252.3c0-32.9-26.7-59.6-59.6-59.6Z"/>
        <rect class="cls-4" x="109.1" y="260.4" width="107.2" height="59.6"/>
        <path class="cls-5" d="M109.1,200.8l-20.9,59.6,20.9,59.6c32.9,0,59.6-26.7,59.6-59.6s-26.7-59.6-59.6-59.6Z"/>
        <path class="cls-6" d="M340.1,260.4c0-32.9-26.7-59.6-59.6-59.6H109.1c32.9,0,59.6,26.7,59.6,59.6h0v157.1l73.2,22,21.9,73.2h76.3v-252.3h0Z"/>
        <polygon class="cls-4" points="263.9 512.7 263.9 417.5 168.7 417.5 263.9 512.7"/>
        <path class="cls-6" d="M109.1,200.8h0c-32.9,0-59.6,26.7-59.6,59.6s26.7,59.6,59.6,59.6h0v-119.1h0Z"/>
        <path class="cls-2" d="M56.4,88.9C25.5,88.9.4,114,.4,144.9s25.1,56,56,56v-111.9Z"/>
        <path class="cls-7" d="M467.5.7h-171.5l-31.3,44.1,31.3,44.1h171.5c24.4,0,44.1-19.7,44.1-44.1S491.8.7,467.5.7Z"/>
        <path class="cls-3" d="M296,.7h-165.4v88.2h165.4c24.4,0,44.1-19.7,44.1-44.1S320.4.7,296,.7Z"/>
        <path class="cls-7" d="M130.7.7l-20.9,44.1,20.9,44.1c24.4,0,44.1-19.7,44.1-44.1S155,.7,130.7.7Z"/>
        <path class="cls-3" d="M130.7.7c-24.4,0-44.1,19.7-44.1,44.1s19.7,44.1,44.1,44.1V.7Z"/>
      </g>
    </g>
  </g>
</svg>